HIERARCHY
ROOT Hips
{
	OFFSET 0.00000 0.00000 0.00000
	CHANNELS 6 Xposition Yposition Zposition Yrotation Zrotation Xrotation 
	JOINT Lumbar
	{
		OFFSET 0 0 0
		CHANNELS 3 Zrotation Xrotation Yrotation
		JOINT Neck
		{
			OFFSET 0.00 0.2701 0.00
			CHANNELS 3 Zrotation Xrotation Yrotation
			End Site
			{
				OFFSET 0.00 0.1379 0.00
			}
		}
		JOINT RightShoulder
		{
			OFFSET 0.0119 0.2289 0.1181
			CHANNELS 3 Zrotation Xrotation Yrotation
			JOINT RightElbow
			{
				OFFSET 0.00 -0.1475 0.00
				CHANNELS 2 Zrotation Yrotation
				JOINT RightWrist
				{
					OFFSET 0.00 -0.1605 0.00
					CHANNELS 2 Zrotation Xrotation
					End Site
					{
						OFFSET 0.0040 -0.1068 0.0006
					}
				}
			}
		}
		JOINT LeftShoulder
		{
			OFFSET 0.0119 0.2289 -0.1181
			CHANNELS 3 Zrotation Xrotation Yrotation
			JOINT LeftElbow
			{
				OFFSET 0.00 -0.1475 0.00
				CHANNELS 2 Zrotation Yrotation
				JOINT LeftWrist
				{
					OFFSET 0.00 -0.1605 0.00
					CHANNELS 2 Zrotation Xrotation
					End Site
					{
						OFFSET 0.0040 -0.1068 -0.0006
					}
				}
			}
		}
	}
	JOINT RightHip
	{
		OFFSET 0.0316 -0.0424 0.0458
		CHANNELS 3 Zrotation Xrotation Yrotation
		JOINT RightKnee
		{
			OFFSET 0.00 -0.2438 0.00
			CHANNELS 1 Zrotation
			JOINT RightAnkle
			{
				OFFSET 0.00 -0.2449 0.00
				CHANNELS 3 Zrotation Xrotation Yrotation
				End Site
				{
					OFFSET 0.1237 -0.0542 0.0051
				}
			}
		}
	}
	JOINT LeftHip
	{
		OFFSET 0.0316 -0.0424 -0.0458
		CHANNELS 3 Zrotation Xrotation Yrotation
		JOINT LeftKnee
		{
			OFFSET 0.00 -0.2438 0.00
			CHANNELS 1 Zrotation
			JOINT LeftAnkle
			{
				OFFSET 0.00 -0.2449 0.00
				CHANNELS 3 Zrotation Xrotation Yrotation
				End Site
				{
					OFFSET 0.1237 -0.0542 -0.0051
				}
			}
		}
	}
}
MOTION
Frames: 14
Frame Time: 0.02
-0 0.57926 -0 -80.43653 0 1.30417 1.98208 -0.38307 2.30878 -29.95257 2.92089 5.47279 29.45315 -17.76563 -3.78541 15.8312 78.48196 -0.43792 -2.17814 21.68305 4.81075 19.07823 6.19195 -74.33636 -5.12055 -0.66903 7.78864 1.75053 19.15162 -23.41167 11.65435 -6.8186 -6.03929 2.63795 -5.70768 4.55199 -15.4251 8.65842 8.3567 13.83976
-2e-05 0.57927 0.00062 -80.10894 0 1.29239 2.22169 -0.38627 2.21467 -30.37235 3.01714 5.43873 29.5145 -17.78635 -3.9059 15.64348 78.64053 -0.3966 -2.08236 21.86886 4.64851 18.36235 6.07293 -74.17778 -5.18142 -0.46622 7.74498 1.76078 18.82859 -23.51277 11.71423 -6.94197 -6.10526 2.66868 -5.70561 4.22099 -15.55098 8.68781 8.37635 13.90123
-5e-05 0.57927 0.00124 -79.77756 0 1.28144 2.46117 -0.39018 2.11875 -30.79036 3.11191 5.4018 29.57338 -17.80409 -4.02647 15.45418 78.79843 -0.35555 -1.98567 22.05964 4.49231 17.616 5.95592 -74.03258 -5.2472 -0.26087 7.70005 1.77063 18.50791 -23.61321 11.77483 -7.06809 -6.17562 2.69913 -5.70426 3.88711 -15.67583 8.71668 8.39563 13.96151
-7e-05 0.57927 0.00187 -79.43019 0 1.27297 2.70124 -0.39584 2.01401 -31.20357 3.20249 5.35389 29.62446 -17.81236 -4.14614 15.25827 78.95524 -0.31568 -1.88542 22.26564 4.35412 16.73089 5.84055 -73.90596 -5.31908 -0.04789 7.64932 1.77869 18.19558 -23.70942 11.83758 -7.205 -6.2625 2.72949 -5.70577 3.53995 -15.79885 8.74392 8.4138 14.01865
-0.0001 0.57929 0.00247 -79.17034 0 1.2505 2.93669 -0.39094 1.95514 -31.63998 3.31626 5.36514 29.71864 -17.87353 -4.26771 15.09921 79.11789 -0.27012 -1.80526 22.38323 4.11504 16.56862 5.71021 -73.64105 -5.34177 0.11935 7.62894 1.79588 17.84154 -23.82501 11.88736 -7.2831 -6.25983 2.76119 -5.6921 3.26495 -15.93278 8.77995 8.43803 14.09362
-0.00012 0.57928 0.00313 -78.72373 0 1.25825 3.18269 -0.40923 1.7999 -32.02841 3.38017 5.25059 29.72037 -17.82088 -4.38708 14.86112 79.26797 -0.23626 -1.68186 22.693 4.09331 14.88609 5.61591 -73.69593 -5.4799 0.38676 7.54465 1.794 17.57434 -23.90152 11.96561 -7.48662 -6.44794 2.78945 -5.71057 2.83636 -16.04266 8.79723 8.44932 14.13
-9e-05 0.5792 0.00394 -77.74657 0 1.34778 3.45735 -0.48686 1.35958 -32.2778 3.30865 4.77791 29.4681 -17.45613 -4.48632 14.40053 79.38688 -0.23842 -1.43828 23.51696 4.66196 8.73592 5.58482 -74.43223 -5.8532 0.91687 7.27238 1.73532 17.56349 -23.8504 12.11827 -8.04508 -7.17566 2.81375 -5.82149 1.96616 -16.09471 8.76282 8.42491 14.06419
-6e-05 0.57909 0.00481 -76.583 0 1.46807 3.74309 -0.58862 0.82511 -32.48045 3.18611 4.17963 29.1224 -16.97551 -4.58537 13.86053 79.49268 -0.25181 -1.15106 24.53875 5.45231 1.09721 5.59568 -75.52341 -6.35663 1.55027 6.93718 1.65822 17.63753 -23.7629 12.30042 -8.72881 -8.09404 2.83376 -5.9642 0.94319 -16.12159 8.70965 8.38752 13.95896
-5e-05 0.579 0.00566 -75.51248 0 1.57572 4.02434 -0.68281 0.34526 -32.70877 3.08552 3.64524 28.81777 -16.54612 -4.69466 13.35884 79.60221 -0.25754 -0.88376 25.48206 6.14862 -5.69773 5.61231 -76.59201 -6.85824 2.14746 6.63816 1.592 17.66161 -23.70543 12.4723 -9.35086 -8.9183 2.85189 -6.09027 0.00025 -16.15366 8.66468 8.35584 13.86832
5e-05 0.57891 0.00647 -74.40489 0 1.67836 4.30305 -0.76359 -0.18512 -32.91744 2.99084 3.08234 28.51734 -16.12334 -4.76389 12.8473 79.72076 -0.27364 -0.61549 26.37767 6.81725 -13.21266 5.52853 -77.09934 -7.12695 2.70341 6.30805 1.51468 17.73261 -23.593 12.63178 -9.99446 -9.77562 2.88538 -6.22608 -0.98759 -16.2095 8.62019 8.32444 13.79003
-3e-05 0.57882 0.00739 -73.33274 0 1.79792 4.58997 -0.87683 -0.6318 -33.15707 2.87086 2.54879 28.1881 -15.65861 -4.913 12.33811 79.81786 -0.27132 -0.33969 27.41883 7.59531 -19.56317 5.65833 -78.82959 -7.90028 3.36463 6.02668 1.45675 17.72747 -23.58387 12.82302 -10.62095 -10.60737 2.88685 -6.34852 -1.91788 -16.21308 8.57135 8.29005 13.67876
-0.00057 0.57877 0.00859 -72.38293 0 1.96362 4.89438 -1.08401 -0.83174 -33.48409 2.70108 2.12806 27.78433 -15.11174 -5.3148 11.84853 79.8548 -0.21117 -0.04664 28.81941 8.62941 -22.49336 6.41503 -84.10753 -10.13182 4.33545 5.90436 1.4514 17.4784 -23.8905 13.1039 -11.18638 -11.33837 2.79287 -6.43152 -2.65433 -16.05185 8.50611 8.24497 13.46819
-0.00129 0.57873 0.0099 -71.47962 0 2.14386 5.20707 -1.321 -0.9429 -33.84556 2.50622 1.74082 27.35854 -14.5256 -5.79238 11.36522 79.87122 -0.13286 0.25114 30.35747 9.76458 -24.17044 7.37634 -90.55328 -12.84787 5.40027 5.83162 1.46732 17.15172 -24.29826 13.41387 -11.72686 -12.03338 2.66848 -6.49884 -3.32671 -15.84444 8.43903 8.19853 13.22918
-0.00192 0.57868 0.01118 -70.56829 0 2.31306 5.51769 -1.53777 -1.08977 -34.19768 2.3178 1.33776 26.95395 -13.95397 -6.21254 10.88313 79.89992 -0.06566 0.5421 31.83013 10.84811 -26.31734 8.21291 -96.29863 -15.27973 6.39323 5.73017 1.47698 16.86961 -24.64558 13.70471 -12.26802 -12.73487 2.56313 -6.57005 -4.02736 -15.675 8.37842 8.15618 13.01486
